<svg width="42" height="51" viewBox="0 0 42 51" fill="none" xmlns="http://www.w3.org/2000/svg">
<path d="M7.77045 18.175V21.3585L35.1168 22.0589C33.4613 38.0719 31.9014 45.0756 31.0737 47.1768C30.055 47.3359 27.7947 47.5588 23.688 47.5588C17.3528 47.5588 12.3229 47.0494 10.4764 46.6356C9.77605 44.5344 8.59816 37.4352 7.77045 21.3267V18.1432M7.77045 18.175C5.95585 18.175 4.49144 19.7031 4.58694 21.5177C4.96896 29.1263 6.08319 46.9221 8.21614 49.1505C9.17119 50.1693 17.0344 50.7741 23.7198 50.7741C28.4314 50.7741 32.5381 50.4876 33.2385 49.8191C35.4351 47.718 37.5044 29.9858 38.3003 22.4091C38.4913 20.5627 37.0587 18.9391 35.2123 18.9072L7.86595 18.2069C7.86595 18.2069 7.80228 18.2069 7.77045 18.2069V18.175Z" fill="#F7E781"/>
<path d="M13.2144 33.042C13.2144 32.1824 15.2518 31.7049 15.5701 30.9408C15.8885 30.1768 14.8061 28.394 15.3791 27.7892C15.9522 27.1843 17.7349 28.2985 18.5308 27.9802C19.3267 27.6618 19.7405 25.6244 20.6319 25.6244C21.5233 25.6244 21.969 27.6618 22.733 27.9802C23.4971 28.2985 25.2798 27.2161 25.8847 27.7892C26.4896 28.3622 25.3753 30.145 25.6937 30.9408C26.012 31.7367 28.0495 32.1506 28.0495 33.042C28.0495 33.9333 26.012 34.379 25.6937 35.1431C25.3753 35.9071 26.4577 37.6899 25.8847 38.2947C25.3117 38.8996 23.5289 37.7854 22.733 38.1037C21.9372 38.4221 21.5233 40.4595 20.6319 40.4595C19.7405 40.4595 19.2949 38.4221 18.5308 38.1037C17.7668 37.7854 15.984 38.8678 15.3791 38.2947C14.7743 37.7217 15.8885 35.9389 15.5701 35.1431C15.2518 34.3472 13.2144 33.9333 13.2144 33.042Z" stroke="#F7E781" stroke-width="3.18351" stroke-linejoin="round"/>
<path d="M40.1793 14.1636L2.39109 15.1505C2.39109 15.1505 1.43604 9.452 3.47348 9.19732C5.47909 8.94264 5.79744 9.13365 7.00717 8.05126C8.18507 6.96887 8.98094 4.39023 10.0952 3.72169C11.1776 3.02132 18.1176 2.16178 20.9828 2.09811C23.8479 2.03444 30.788 2.51196 31.9022 3.14866C33.0482 3.75353 33.9715 6.2685 35.213 7.28722C36.4546 8.30594 36.7729 8.11493 38.7786 8.24227C40.816 8.36961 40.1793 14.1318 40.1793 14.1318V14.1636Z" stroke="#F7E781" stroke-width="3.18351" stroke-linejoin="round"/>
</svg>
