<svg width="44" height="44" viewBox="0 0 44 44" fill="none" xmlns="http://www.w3.org/2000/svg">
<path d="M41.8371 20.1492L11.4255 21.0377C11.4255 21.0377 9.00016 11.7488 3.33203 3.07915C7.85563 3.07915 30.7189 2.29834 33.7437 2.29834C40.1749 10.4833 41.8371 20.1492 41.8371 20.1492Z" stroke="#F7E781" stroke-width="2.72506" stroke-linejoin="round"/>
<path d="M11.4243 21.0376L3.00391 34.8229" stroke="#F7E781" stroke-width="2.72506" stroke-linejoin="round"/>
<path d="M33.6048 41.5271L41.998 27.6342L41.8345 20.0415L33.4141 33.9614" stroke="#F7E781" stroke-width="2.72506" stroke-linejoin="round"/>
<path d="M32.4078 7.81783L1.99609 8.62556L3.33137 3.07915L33.7431 2.29834L32.4078 7.81783Z" stroke="#F7E781" stroke-width="2.72506" stroke-linejoin="round"/>
<path d="M33.6063 41.5272L3.19466 42.3349L3.00391 34.823L33.4156 33.9614L33.6063 41.5272Z" stroke="#F7E781" stroke-width="2.72506" stroke-linejoin="round"/>
<path d="M22.5717 30.1921C17.4485 30.1921 13.252 26.0727 13.252 20.984C13.252 15.8953 17.4213 11.7759 22.5717 11.7759C27.722 11.7759 31.8914 15.8953 31.8914 20.984C31.8914 26.0727 27.722 30.1921 22.5717 30.1921Z" fill="#F7E781"/>
<path d="M22.5709 13.149C26.9583 13.149 30.5281 16.6761 30.5281 21.0109C30.5281 25.3457 26.9583 28.8728 22.5709 28.8728C18.1836 28.8728 14.6137 25.3457 14.6137 21.0109C14.6137 16.6761 18.1836 13.149 22.5709 13.149ZM22.5709 10.4565C16.6848 10.4565 11.8887 15.1683 11.8887 21.0109C11.8887 26.8535 16.6575 31.5652 22.5709 31.5652C28.4843 31.5652 33.2532 26.8535 33.2532 21.0109C33.2532 15.1683 28.4843 10.4565 22.5709 10.4565Z" fill="#F7E781"/>
<path d="M22.5696 24.0271C20.8801 24.0271 19.5176 22.6809 19.5176 21.0116C19.5176 19.3423 20.8801 17.9961 22.5696 17.9961C24.2592 17.9961 25.6217 19.3423 25.6217 21.0116C25.6217 22.6809 24.2592 24.0271 22.5696 24.0271Z" fill="#2C546F"/>
<path d="M22.5689 19.315C23.4954 19.315 24.2584 20.0689 24.2584 20.9843C24.2584 21.8997 23.4954 22.6536 22.5689 22.6536C21.6424 22.6536 20.8794 21.8997 20.8794 20.9843C20.8794 20.0689 21.6424 19.315 22.5689 19.315ZM22.5689 16.6226C20.1163 16.6226 18.1543 18.588 18.1543 20.9843C18.1543 23.3806 20.1436 25.3461 22.5689 25.3461C24.9942 25.3461 26.9835 23.3806 26.9835 20.9843C26.9835 18.588 24.9942 16.6226 22.5689 16.6226Z" fill="#2C546F"/>
</svg>
