<svg width="33" height="43" viewBox="0 0 33 43" fill="none" xmlns="http://www.w3.org/2000/svg">
<path d="M28.255 22.3758C28.3094 24.1716 27.9557 25.8586 27.2482 27.4095H5.67119C5.07258 26.0491 4.71886 24.5526 4.69165 22.9744C4.50118 16.4714 9.64375 11.0567 16.174 10.8934C22.677 10.7302 28.0917 15.8456 28.255 22.3758Z" stroke="#2C546F" stroke-width="2.72094" stroke-linejoin="round"/>
<path d="M25.1251 14.7571C27.1839 14.7571 28.8528 13.0882 28.8528 11.0294C28.8528 8.9707 27.1839 7.30176 25.1251 7.30176C23.0664 7.30176 21.3975 8.9707 21.3975 11.0294C21.3975 13.0882 23.0664 14.7571 25.1251 14.7571Z" fill="white"/>
<path d="M25.1251 14.7571C27.1839 14.7571 28.8528 13.0882 28.8528 11.0294C28.8528 8.9707 27.1839 7.30176 25.1251 7.30176C23.0664 7.30176 21.3975 8.9707 21.3975 11.0294C21.3975 13.0882 23.0664 14.7571 25.1251 14.7571Z" fill="#F7F6EA" fill-opacity="0.5"/>
<path d="M25.1251 14.7571C27.1839 14.7571 28.8528 13.0882 28.8528 11.0294C28.8528 8.9707 27.1839 7.30176 25.1251 7.30176C23.0664 7.30176 21.3975 8.9707 21.3975 11.0294C21.3975 13.0882 23.0664 14.7571 25.1251 14.7571Z" stroke="#2C546F" stroke-width="2.72094" stroke-linejoin="round"/>
<path d="M18.3229 12.635C20.1111 12.635 21.5608 11.1853 21.5608 9.39709C21.5608 7.60884 20.1111 6.15918 18.3229 6.15918C16.5346 6.15918 15.085 7.60884 15.085 9.39709C15.085 11.1853 16.5346 12.635 18.3229 12.635Z" fill="white"/>
<path d="M18.3229 12.635C20.1111 12.635 21.5608 11.1853 21.5608 9.39709C21.5608 7.60884 20.1111 6.15918 18.3229 6.15918C16.5346 6.15918 15.085 7.60884 15.085 9.39709C15.085 11.1853 16.5346 12.635 18.3229 12.635Z" fill="#F7F6EA" fill-opacity="0.5"/>
<path d="M18.3229 12.635C20.1111 12.635 21.5608 11.1853 21.5608 9.39709C21.5608 7.60884 20.1111 6.15918 18.3229 6.15918C16.5346 6.15918 15.085 7.60884 15.085 9.39709C15.085 11.1853 16.5346 12.635 18.3229 12.635Z" stroke="#2C546F" stroke-width="2.72094" stroke-linejoin="round"/>
<path d="M27.4107 8.09101C29.2066 5.80543 29.7507 2.78519 28.7984 1.50635C28.7984 1.50635 25.2884 5.88706 20.6084 7.4652" stroke="#2C546F" stroke-width="2.72094" stroke-linejoin="round"/>
<path d="M5.75095 30.9194C3.43816 30.9194 1.58792 29.1236 1.5335 26.838C1.50629 25.7224 1.91443 24.634 2.70351 23.8177C3.49258 23.0015 4.52653 22.5389 5.64212 22.5117C6.43119 22.5117 7.16584 22.7022 7.76445 23.0287C8.39026 22.6205 9.12492 22.4029 9.88678 22.3756C10.7031 22.3756 11.4377 22.5661 12.0635 22.8926C12.6893 22.4845 13.424 22.2668 14.1859 22.2396C14.9749 22.2396 15.7096 22.4301 16.3354 22.7566C16.9612 22.3756 17.6959 22.1308 18.4577 22.1308C19.2468 22.1308 19.9815 22.3212 20.6073 22.6477C21.2331 22.2668 21.9677 22.0219 22.7296 22.0219C23.5187 22.0219 24.2533 22.2124 24.8791 22.5389C25.505 22.158 26.2396 21.9131 27.0015 21.9131C29.3687 21.9131 31.2733 23.7633 31.3278 26.0217C31.3822 28.3345 29.5319 30.2664 27.2191 30.3208C26.4301 30.3208 25.6954 30.1303 25.0696 29.8038C24.4166 30.2119 23.6819 30.4296 22.9201 30.4568C22.131 30.4568 21.3963 30.2664 20.7705 29.9398C20.1175 30.348 19.3828 30.5657 18.6482 30.5929C17.8591 30.5929 17.1245 30.4024 16.4987 30.0487C15.8456 30.4568 15.111 30.6745 14.3491 30.7017C13.56 30.7017 12.8254 30.5112 12.1996 30.1847C11.5465 30.5929 10.8119 30.8105 10.05 30.8378C9.26096 30.8378 8.52631 30.6473 7.9277 30.3208C7.30189 30.7289 6.56724 30.9466 5.80537 30.9738H5.69654L5.75095 30.9194Z" fill="white"/>
<path d="M5.75095 30.9194C3.43816 30.9194 1.58792 29.1236 1.5335 26.838C1.50629 25.7224 1.91443 24.634 2.70351 23.8177C3.49258 23.0015 4.52653 22.5389 5.64212 22.5117C6.43119 22.5117 7.16584 22.7022 7.76445 23.0287C8.39026 22.6205 9.12492 22.4029 9.88678 22.3756C10.7031 22.3756 11.4377 22.5661 12.0635 22.8926C12.6893 22.4845 13.424 22.2668 14.1859 22.2396C14.9749 22.2396 15.7096 22.4301 16.3354 22.7566C16.9612 22.3756 17.6959 22.1308 18.4577 22.1308C19.2468 22.1308 19.9815 22.3212 20.6073 22.6477C21.2331 22.2668 21.9677 22.0219 22.7296 22.0219C23.5187 22.0219 24.2533 22.2124 24.8791 22.5389C25.505 22.158 26.2396 21.9131 27.0015 21.9131C29.3687 21.9131 31.2733 23.7633 31.3278 26.0217C31.3822 28.3345 29.5319 30.2664 27.2191 30.3208C26.4301 30.3208 25.6954 30.1303 25.0696 29.8038C24.4166 30.2119 23.6819 30.4296 22.9201 30.4568C22.131 30.4568 21.3963 30.2664 20.7705 29.9398C20.1175 30.348 19.3828 30.5657 18.6482 30.5929C17.8591 30.5929 17.1245 30.4024 16.4987 30.0487C15.8456 30.4568 15.111 30.6745 14.3491 30.7017C13.56 30.7017 12.8254 30.5112 12.1996 30.1847C11.5465 30.5929 10.8119 30.8105 10.05 30.8378C9.26096 30.8378 8.52631 30.6473 7.9277 30.3208C7.30189 30.7289 6.56724 30.9466 5.80537 30.9738H5.69654L5.75095 30.9194Z" fill="#F7F6EA" fill-opacity="0.5"/>
<path d="M27.1636 23.3282C28.7145 23.3282 29.9933 24.5526 30.0205 26.1036C30.075 27.6817 28.8233 28.9606 27.2452 29.015C27.2452 29.015 27.1908 29.015 27.1636 29.015C26.3473 29.015 25.6126 28.6613 25.0956 28.1171C24.5515 28.7157 23.7896 29.0966 22.9461 29.1238C22.9461 29.1238 22.8917 29.1238 22.8645 29.1238C22.0482 29.1238 21.3135 28.7701 20.7966 28.2259C20.2524 28.8245 19.4905 29.2054 18.647 29.2327C18.647 29.2327 18.5926 29.2327 18.5654 29.2327C17.7491 29.2327 17.0145 28.8789 16.4975 28.3347C15.9533 28.9334 15.1914 29.3143 14.3479 29.3415C14.3479 29.3415 14.2935 29.3415 14.2663 29.3415C13.45 29.3415 12.7154 28.9878 12.1984 28.4436C11.6542 29.0422 10.8924 29.4231 10.0489 29.4503C10.0489 29.4503 9.99445 29.4503 9.96724 29.4503C9.15096 29.4503 8.41631 29.0966 7.89933 28.5252C7.40956 29.151 6.6477 29.5592 5.80421 29.5592C5.80421 29.5592 5.74979 29.5592 5.72258 29.5592C4.17165 29.5592 2.92002 28.362 2.8656 26.811C2.81118 25.2329 4.06281 23.9268 5.64095 23.8724C5.64095 23.8724 5.69537 23.8724 5.72258 23.8724C6.53886 23.8724 7.27351 24.2261 7.79049 24.7975C8.28026 24.1717 9.04212 23.7636 9.88561 23.7636C9.88561 23.7636 9.94003 23.7636 9.96724 23.7636C10.7835 23.7636 11.5726 24.1173 12.0896 24.6887C12.5793 24.0629 13.3412 23.6547 14.1847 23.6547C14.1847 23.6547 14.2391 23.6547 14.2663 23.6547C15.0826 23.6547 15.8717 24.0085 16.3887 24.5799C16.8512 23.954 17.6403 23.5459 18.4838 23.5459C18.4838 23.5459 18.5382 23.5459 18.5654 23.5459C19.3817 23.5459 20.1708 23.8996 20.6877 24.471C21.1503 23.8452 21.9394 23.4371 22.7829 23.4371C22.7829 23.4371 22.8373 23.4371 22.8645 23.4371C23.6808 23.4371 24.4698 23.7908 24.9868 24.3622C25.4494 23.7364 26.2384 23.3282 27.0819 23.3282C27.0819 23.3282 27.1364 23.3282 27.1636 23.3282ZM27.1636 20.6073H27.0275C26.2929 20.6073 25.5582 20.7978 24.9052 21.0971C24.2794 20.8522 23.5991 20.7161 22.8917 20.7161H22.7556C22.021 20.7161 21.2863 20.9066 20.6333 21.2059C20.0075 20.961 19.3273 20.825 18.6198 20.825H18.4838C17.7491 20.825 17.0145 21.0154 16.3614 21.3147C15.7356 21.0698 15.0554 20.9338 14.3479 20.9338H14.2119C13.4772 20.9338 12.7426 21.1243 12.0896 21.4236C11.4638 21.1787 10.7835 21.0426 10.0761 21.0426H9.94003C9.20538 21.0426 8.47073 21.2331 7.8177 21.5324C7.19189 21.2875 6.51165 21.1515 5.83142 21.1515H5.69537C4.19886 21.1787 2.81118 21.8045 1.80443 22.8929C0.688848 23.9812 0.144661 25.3961 0.17187 26.8927C0.253498 29.9129 2.70234 32.2801 5.74979 32.2801H5.88584C6.62049 32.2801 7.35514 32.0896 8.00817 31.7903C8.63398 32.0352 9.31422 32.1713 9.99445 32.1713H10.1305C10.8652 32.1713 11.5998 31.9808 12.2528 31.6815C12.8786 31.9264 13.5589 32.0624 14.2663 32.0624H14.4024C15.137 32.0624 15.8717 31.872 16.5247 31.5727C17.1505 31.8175 17.8307 31.9536 18.5382 31.9536H18.6742C19.4089 31.9536 20.1435 31.7631 20.7966 31.4638C21.4224 31.7087 22.1026 31.8448 22.8101 31.8448H22.9461C23.6808 31.8448 24.4154 31.6543 25.0684 31.355C25.6943 31.5999 26.3745 31.7359 27.0819 31.7359H27.218C28.7145 31.7087 30.075 31.0829 31.1089 30.0217C32.1429 28.9334 32.6871 27.5185 32.6599 26.022C32.5782 23.0289 30.075 20.5801 27.0819 20.5801L27.1636 20.6073Z" fill="#2C546F"/>
<path d="M27.3813 36.9055C26.7283 38.6197 26.1569 39.5176 25.8304 39.8441C24.742 40.0346 21.4225 40.2523 16.3888 40.2523C11.355 40.2523 8.17153 40.0346 7.08316 39.8441C6.78385 39.4904 6.18525 38.6197 5.53222 36.8783H27.3541M27.7895 34.1846H5.12408C3.40989 34.1846 2.10384 35.2185 2.45757 36.3341C3.11059 38.402 4.28059 41.3406 5.77711 42.293C6.48455 42.7555 11.4367 43.0004 16.3888 43.0004C21.3409 43.0004 26.4562 42.7555 27.1637 42.293C28.633 41.3134 29.803 38.3748 30.456 36.3341C30.8097 35.2185 29.5309 34.1846 27.7895 34.1846Z" fill="#2C546F"/>
</svg>
