<svg width="38" height="50" viewBox="0 0 38 50" fill="none" xmlns="http://www.w3.org/2000/svg">
<path d="M32.6881 25.6413C32.7505 27.699 32.3452 29.632 31.5346 31.4091H6.81088C6.12497 29.8503 5.71967 28.1355 5.68849 26.3272C5.47025 18.8758 11.3628 12.6715 18.8454 12.4845C26.2967 12.2974 32.5011 18.1587 32.6881 25.6413Z" stroke="#F7E781" stroke-width="3.11774" stroke-linejoin="round"/>
<path d="M29.1019 16.9115C31.4608 16.9115 33.3732 14.9992 33.3732 12.6402C33.3732 10.2812 31.4608 8.3689 29.1019 8.3689C26.7429 8.3689 24.8306 10.2812 24.8306 12.6402C24.8306 14.9992 26.7429 16.9115 29.1019 16.9115Z" fill="#2C546F"/>
<path d="M29.1019 16.9115C31.4608 16.9115 33.3732 14.9992 33.3732 12.6402C33.3732 10.2812 31.4608 8.3689 29.1019 8.3689C26.7429 8.3689 24.8306 10.2812 24.8306 12.6402C24.8306 14.9992 26.7429 16.9115 29.1019 16.9115Z" fill="#2C546F" fill-opacity="0"/>
<path d="M29.1019 16.9115C31.4608 16.9115 33.3732 14.9992 33.3732 12.6402C33.3732 10.2812 31.4608 8.3689 29.1019 8.3689C26.7429 8.3689 24.8306 10.2812 24.8306 12.6402C24.8306 14.9992 26.7429 16.9115 29.1019 16.9115Z" stroke="#F7E781" stroke-width="3.11774" stroke-linejoin="round"/>
<path d="M21.3078 14.4799C23.3568 14.4799 25.0179 12.8188 25.0179 10.7698C25.0179 8.72077 23.3568 7.05969 21.3078 7.05969C19.2587 7.05969 17.5977 8.72077 17.5977 10.7698C17.5977 12.8188 19.2587 14.4799 21.3078 14.4799Z" fill="#2C546F"/>
<path d="M21.3078 14.4799C23.3568 14.4799 25.0179 12.8188 25.0179 10.7698C25.0179 8.72077 23.3568 7.05969 21.3078 7.05969C19.2587 7.05969 17.5977 8.72077 17.5977 10.7698C17.5977 12.8188 19.2587 14.4799 21.3078 14.4799Z" fill="#2C546F" fill-opacity="0"/>
<path d="M21.3078 14.4799C23.3568 14.4799 25.0179 12.8188 25.0179 10.7698C25.0179 8.72077 23.3568 7.05969 21.3078 7.05969C19.2587 7.05969 17.5977 8.72077 17.5977 10.7698C17.5977 12.8188 19.2587 14.4799 21.3078 14.4799Z" stroke="#F7E781" stroke-width="3.11774" stroke-linejoin="round"/>
<path d="M31.7211 9.2732C33.7788 6.6543 34.4024 3.19361 33.3112 1.72827C33.3112 1.72827 29.2893 6.74783 23.9268 8.55612" stroke="#F7E781" stroke-width="3.11774" stroke-linejoin="round"/>
<path d="M6.90232 35.4308C4.25224 35.4308 2.13218 33.3731 2.06982 30.7542C2.03865 29.4759 2.50631 28.2288 3.41045 27.2935C4.3146 26.3582 5.49934 25.8282 6.77761 25.797C7.68175 25.797 8.52354 26.0152 9.20945 26.3894C9.92653 25.9217 10.7683 25.6723 11.6413 25.6411C12.5766 25.6411 13.4184 25.8593 14.1355 26.2335C14.8526 25.7658 15.6943 25.5164 16.5673 25.4852C17.4715 25.4852 18.3132 25.7035 19.0303 26.0776C19.7474 25.6411 20.5892 25.3605 21.4622 25.3605C22.3663 25.3605 23.2081 25.5787 23.9252 25.9529C24.6423 25.5164 25.484 25.2358 26.357 25.2358C27.2612 25.2358 28.1029 25.454 28.82 25.8282C29.5371 25.3917 30.3789 25.1111 31.2519 25.1111C33.9643 25.1111 36.1467 27.2311 36.2091 29.8189C36.2714 32.469 34.1514 34.6825 31.5013 34.7449C30.5971 34.7449 29.7554 34.5267 29.0383 34.1525C28.29 34.6202 27.4482 34.8696 26.5753 34.9008C25.6711 34.9008 24.8293 34.6825 24.1122 34.3084C23.364 34.7761 22.5222 35.0255 21.6804 35.0567C20.7763 35.0567 19.9345 34.8384 19.2174 34.4331C18.4691 34.9008 17.6273 35.1502 16.7544 35.1814C15.8502 35.1814 15.0084 34.9631 14.2914 34.589C13.5431 35.0567 12.7013 35.3061 11.8283 35.3373C10.9242 35.3373 10.0824 35.119 9.39651 34.7449C8.67943 35.2126 7.83764 35.462 6.96467 35.4932H6.83996L6.90232 35.4308Z" fill="#2C546F"/>
<path d="M6.90232 35.4308C4.25224 35.4308 2.13218 33.3731 2.06982 30.7542C2.03865 29.4759 2.50631 28.2288 3.41045 27.2935C4.3146 26.3582 5.49934 25.8282 6.77761 25.797C7.68175 25.797 8.52354 26.0152 9.20945 26.3894C9.92653 25.9217 10.7683 25.6723 11.6413 25.6411C12.5766 25.6411 13.4184 25.8593 14.1355 26.2335C14.8526 25.7658 15.6943 25.5164 16.5673 25.4852C17.4715 25.4852 18.3132 25.7035 19.0303 26.0776C19.7474 25.6411 20.5892 25.3605 21.4622 25.3605C22.3663 25.3605 23.2081 25.5787 23.9252 25.9529C24.6423 25.5164 25.484 25.2358 26.357 25.2358C27.2612 25.2358 28.1029 25.454 28.82 25.8282C29.5371 25.3917 30.3789 25.1111 31.2519 25.1111C33.9643 25.1111 36.1467 27.2311 36.2091 29.8189C36.2714 32.469 34.1514 34.6825 31.5013 34.7449C30.5971 34.7449 29.7554 34.5267 29.0383 34.1525C28.29 34.6202 27.4482 34.8696 26.5753 34.9008C25.6711 34.9008 24.8293 34.6825 24.1122 34.3084C23.364 34.7761 22.5222 35.0255 21.6804 35.0567C20.7763 35.0567 19.9345 34.8384 19.2174 34.4331C18.4691 34.9008 17.6273 35.1502 16.7544 35.1814C15.8502 35.1814 15.0084 34.9631 14.2914 34.589C13.5431 35.0567 12.7013 35.3061 11.8283 35.3373C10.9242 35.3373 10.0824 35.119 9.39651 34.7449C8.67943 35.2126 7.83764 35.462 6.96467 35.4932H6.83996L6.90232 35.4308Z" fill="#2C546F" fill-opacity="0"/>
<path d="M31.4379 26.7327C33.215 26.7327 34.6803 28.1356 34.7115 29.9128C34.7739 31.721 33.3397 33.1864 31.5314 33.2487C31.5314 33.2487 31.4691 33.2487 31.4379 33.2487C30.5026 33.2487 29.6608 32.8434 29.0684 32.2199C28.4449 32.9058 27.5719 33.3423 26.6054 33.3734C26.6054 33.3734 26.543 33.3734 26.5119 33.3734C25.5765 33.3734 24.7347 32.9681 24.1424 32.3446C23.5188 33.0305 22.6459 33.467 21.6794 33.4982C21.6794 33.4982 21.617 33.4982 21.5858 33.4982C20.6505 33.4982 19.8087 33.0928 19.2163 32.4693C18.5928 33.1552 17.7198 33.5917 16.7533 33.6229C16.7533 33.6229 16.691 33.6229 16.6598 33.6229C15.7245 33.6229 14.8827 33.2176 14.2903 32.594C13.6668 33.2799 12.7938 33.7164 11.8273 33.7476C11.8273 33.7476 11.7649 33.7476 11.7338 33.7476C10.7984 33.7476 9.95665 33.3423 9.36428 32.6875C8.80309 33.4046 7.93012 33.8723 6.96362 33.8723C6.96362 33.8723 6.90127 33.8723 6.87009 33.8723C5.09298 33.8723 3.65882 32.5005 3.59647 30.7234C3.53411 28.9151 4.96827 27.4186 6.77656 27.3562C6.77656 27.3562 6.83891 27.3562 6.87009 27.3562C7.80541 27.3562 8.6472 27.7615 9.23957 28.4162C9.80077 27.6992 10.6737 27.2315 11.6402 27.2315C11.6402 27.2315 11.7026 27.2315 11.7338 27.2315C12.6691 27.2315 13.5732 27.6368 14.1656 28.2915C14.7268 27.5744 15.5998 27.1068 16.5663 27.1068C16.5663 27.1068 16.6286 27.1068 16.6598 27.1068C17.5951 27.1068 18.4993 27.5121 19.0916 28.1668C19.6217 27.4497 20.5258 26.9821 21.4923 26.9821C21.4923 26.9821 21.5546 26.9821 21.5858 26.9821C22.5211 26.9821 23.4253 27.3874 24.0177 28.0421C24.5477 27.325 25.4518 26.8574 26.4183 26.8574C26.4183 26.8574 26.4807 26.8574 26.5119 26.8574C27.4472 26.8574 28.3513 27.2627 28.9437 27.9174C29.4737 27.2003 30.3779 26.7327 31.3444 26.7327C31.3444 26.7327 31.4067 26.7327 31.4379 26.7327ZM31.4379 23.6149H31.282C30.4402 23.6149 29.5984 23.8332 28.8502 24.1761C28.1331 23.8955 27.3536 23.7396 26.543 23.7396H26.3871C25.5454 23.7396 24.7036 23.9579 23.9553 24.3008C23.2382 24.0202 22.4588 23.8643 21.6482 23.8643H21.4923C20.6505 23.8643 19.8087 24.0826 19.0605 24.4255C18.3434 24.1449 17.5639 23.989 16.7533 23.989H16.5974C15.7557 23.989 14.9139 24.2073 14.1656 24.5502C13.4485 24.2696 12.6691 24.1138 11.8585 24.1138H11.7026C10.8608 24.1138 10.019 24.332 9.27075 24.6749C8.55367 24.3944 7.77424 24.2385 6.9948 24.2385H6.83891C5.12416 24.2696 3.53411 24.9867 2.38055 26.2338C1.10227 27.4809 0.478725 29.1021 0.509903 30.8169C0.603435 34.2776 3.4094 36.99 6.90127 36.99H7.05716C7.89895 36.99 8.74074 36.7718 9.48899 36.4288C10.2061 36.7094 10.9855 36.8653 11.7649 36.8653H11.9208C12.7626 36.8653 13.6044 36.6471 14.3527 36.3041C15.0697 36.5847 15.8492 36.7406 16.6598 36.7406H16.8157C17.6575 36.7406 18.4993 36.5224 19.2475 36.1794C19.9646 36.46 20.744 36.6159 21.5546 36.6159H21.7105C22.5523 36.6159 23.3941 36.3977 24.1424 36.0547C24.8595 36.3353 25.6389 36.4912 26.4495 36.4912H26.6054C27.4472 36.4912 28.289 36.2729 29.0372 35.93C29.7543 36.2106 30.5337 36.3665 31.3444 36.3665H31.5002C33.215 36.3353 34.7739 35.6182 35.9586 34.4023C37.1433 33.1552 37.7669 31.534 37.7357 29.8192C37.6422 26.3897 34.7739 23.5837 31.3444 23.5837L31.4379 23.6149Z" fill="#F7E781"/>
<path d="M31.6871 42.29C30.9389 44.2542 30.2842 45.283 29.91 45.6571C28.6629 45.8754 24.8593 46.1248 19.0915 46.1248C13.3237 46.1248 9.6759 45.8754 8.4288 45.6571C8.08585 45.2518 7.39995 44.2542 6.65169 42.2588H31.656M32.1548 39.1722H6.18403C4.21985 39.1722 2.72334 40.357 3.12864 41.6353C3.8769 44.0047 5.21753 47.3719 6.93229 48.4631C7.7429 48.9931 13.4172 49.2737 19.0915 49.2737C24.7658 49.2737 30.6271 48.9931 31.4377 48.4631C33.1213 47.3407 34.4619 43.9736 35.2102 41.6353C35.6155 40.357 34.1502 39.1722 32.1548 39.1722Z" fill="#F7E781"/>
</svg>
