<svg width="49" height="49" viewBox="0 0 49 49" fill="none" xmlns="http://www.w3.org/2000/svg">
<path d="M45.6784 30.2829C51.7144 15.437 27.9343 -0.376345 12.9807 2.58677C3.03185 4.55211 -0.0316618 11.7483 3.00152 17.4931C5.51906 22.2703 8.33992 21.968 9.85651 28.6501C11.3731 35.3323 8.76457 44.6752 15.4679 46.58C22.8082 48.6663 25.6897 42.1051 31.2101 38.8094C38.5201 34.4554 43.7978 34.9997 45.7391 30.2829H45.6784Z" stroke="#F7E781" stroke-width="3.47881" stroke-linejoin="round"/>
<path d="M22.7781 31.9762C27.4184 31.9762 31.1801 28.2264 31.1801 23.6008C31.1801 18.9752 27.4184 15.2255 22.7781 15.2255C18.1379 15.2255 14.3762 18.9752 14.3762 23.6008C14.3762 28.2264 18.1379 31.9762 22.7781 31.9762Z" stroke="#F7E781" stroke-width="3.47881" stroke-linejoin="round"/>
<path d="M24.6594 26.8359C26.9646 24.3565 26.3883 21.847 24.8111 20.3956" stroke="#F7E781" stroke-width="3.47881" stroke-linecap="round" stroke-linejoin="round"/>
</svg>
