<svg width="56" height="56" viewBox="0 0 56 56" fill="none" xmlns="http://www.w3.org/2000/svg">
<path d="M2.49495 28.065C2.49495 25.0211 9.59737 23.4117 10.682 20.7876C11.7666 18.1636 7.98795 11.9008 10.0522 9.8366C12.1164 7.77235 18.2392 11.6209 21.0032 10.4664C23.7672 9.31179 25.2017 2.31433 28.2456 2.31433C31.2895 2.31433 32.8989 9.41675 35.5229 10.5014C38.147 11.586 44.4097 7.80733 46.474 9.87158C48.5382 11.9358 44.6896 18.0586 45.8442 20.8226C46.9988 23.5866 54.0312 25.0561 54.0312 28.1C54.0312 31.1438 46.9288 32.7533 45.8442 35.3773C44.7596 38.0014 48.5382 44.2641 46.474 46.3283C44.4097 48.3926 38.2869 44.544 35.5229 45.6986C32.7589 46.8531 31.2895 53.8856 28.2456 53.8856C25.2017 53.8856 23.5923 46.7832 20.9682 45.6986C18.3442 44.6139 12.0815 48.3926 10.0172 46.3283C7.95296 44.2641 11.8016 38.1413 10.647 35.3773C9.4924 32.6133 2.45996 31.1438 2.45996 28.1L2.49495 28.065Z" stroke="#2C546F" stroke-width="3.49873" stroke-linejoin="round"/>
<path d="M28.2476 19.074V37.0574" stroke="#2C546F" stroke-width="3.49873" stroke-linecap="round" stroke-linejoin="round"/>
<path d="M20.4438 23.5874L36.0482 32.5791" stroke="#2C546F" stroke-width="3.49873" stroke-linecap="round" stroke-linejoin="round"/>
<path d="M20.4438 32.5791L36.0482 23.5874" stroke="#2C546F" stroke-width="3.49873" stroke-linecap="round" stroke-linejoin="round"/>
</svg>
