<svg width="51" height="52" viewBox="0 0 51 52" fill="none" xmlns="http://www.w3.org/2000/svg">
<path d="M25.6634 4.00834C37.8264 4.00834 47.7207 13.9026 47.7207 26.0656C47.7207 38.2287 37.8264 48.1229 25.6634 48.1229C13.5004 48.1229 3.60612 38.2287 3.60612 26.0656C3.60612 13.9026 13.5004 4.00834 25.6634 4.00834ZM25.6634 0.8573C11.7358 0.8573 0.455078 12.138 0.455078 26.0656C0.455078 39.9932 11.7358 51.274 25.6634 51.274C39.591 51.274 50.8717 39.9932 50.8717 26.0656C50.8717 12.138 39.591 0.8573 25.6634 0.8573Z" fill="#2C546F"/>
<path d="M16.5259 26.0655C16.5259 24.9942 19.0467 24.427 19.4248 23.4817C19.803 22.5363 18.4795 20.3306 19.2043 19.6059C19.929 18.8811 22.1032 20.2361 23.08 19.8264C24.0569 19.4168 24.5925 16.9275 25.6639 16.9275C26.7353 16.9275 27.3024 19.4483 28.2478 19.8264C29.1931 20.2046 31.3988 18.8811 32.1235 19.6059C32.8483 20.3306 31.4933 22.5048 31.903 23.4817C32.3126 24.4585 34.8019 24.9942 34.8019 26.0655C34.8019 27.1369 32.2811 27.7041 31.903 28.6494C31.5248 29.5947 32.8483 31.8004 32.1235 32.5251C31.3988 33.2499 29.2246 31.8949 28.2478 32.3046C27.2709 32.7142 26.7353 35.2035 25.6639 35.2035C24.5925 35.2035 24.0254 32.6827 23.08 32.3046C22.1347 31.9264 19.929 33.2499 19.2043 32.5251C18.4795 31.8004 19.8345 29.6262 19.4248 28.6494C19.0152 27.6725 16.5259 27.1369 16.5259 26.0655Z" stroke="#2C546F" stroke-width="3.15104" stroke-linejoin="round"/>
</svg>
