<svg width="222" height="40" viewBox="0 0 222 40" fill="none" xmlns="http://www.w3.org/2000/svg">
<g clip-path="url(#clip0_6107_84)">
<path d="M13.8443 7.615C10.2263 3.83967 6.49544 2.229 1.37276 2.229H-0.00195312V6.68827L1.22913 6.81821C1.41379 6.83873 1.66343 6.86267 1.84467 6.89003C1.84809 7.04049 1.84809 7.22516 1.84809 7.34827V34.2953C1.84809 34.4048 1.84809 34.5758 1.84809 34.7262C1.71131 34.7536 1.50613 34.7878 1.19835 34.8288L0.00488624 34.9861V39.4146H5.36694C10.0519 39.4146 13.6494 37.8928 16.0637 34.887C18.2694 32.1409 19.3876 28.2425 19.3876 23.3011C19.3876 14.7177 15.9201 9.7865 13.8478 7.61158L13.8443 7.615ZM14.0564 23.3045C14.0564 28.5058 12.196 34.0799 7.02549 34.5039V8.2921C9.93222 10.0738 14.0564 14.8134 14.0564 23.3045Z" fill="#FCFCFC"/>
<path d="M31.8001 2.229V6.69169L33.0346 6.81821C33.3458 6.84899 33.5578 6.87977 33.6946 6.90713C33.698 7.06101 33.698 7.23884 33.698 7.34827V29.6754C33.698 34.5518 32.4703 34.9177 30.5963 34.9177C28.7223 34.9177 27.5938 34.5518 27.5938 29.6754V7.34827C27.5938 7.23884 27.5938 7.05759 27.5973 6.90713C27.7375 6.88319 27.9461 6.85241 28.2573 6.81821L29.4918 6.69169V2.229H20.5664V6.68827L21.7975 6.81821C21.9822 6.83873 22.2284 6.86267 22.4096 6.89003C22.413 7.04049 22.413 7.22516 22.413 7.34827V29.4804C22.413 34.6818 23.374 39.9994 30.5006 39.9994C33.7561 39.9994 35.9857 38.9974 37.3228 36.9388C38.4 35.2802 38.8788 32.9822 38.8788 29.4804V7.34827C38.8788 7.22516 38.8788 7.04049 38.8822 6.89003C39.0635 6.86267 39.3097 6.83873 39.4943 6.81821L40.7254 6.68827V2.229H31.8001Z" fill="#FCFCFC"/>
<path d="M56.8593 30.4689L56.1275 32.1377C55.5667 33.42 54.3117 34.9144 52.6189 34.9144C51.1074 34.9144 49.8969 33.7107 49.0249 31.3409C48.105 28.8377 47.6194 25.1342 47.6194 20.627C47.6194 13.7193 49.4044 6.72602 52.8139 6.72602C53.679 6.72602 54.4792 7.18084 55.3307 8.15203L55.9736 8.88726L59.725 7.36208L56.6302 -0.000488281L53.0943 1.34003V1.64096C53.0122 1.64096 52.9199 1.64096 52.8139 1.64096C49.1069 1.64096 46.1934 3.83297 44.3912 7.97421C42.6574 11.9581 42.2949 16.838 42.2949 20.2338C42.2949 26.0746 43.0028 30.6809 44.4014 33.9296C46.1352 37.9545 48.8983 39.9961 52.6189 39.9961C57.6766 39.9961 59.6635 36.019 60.3166 34.7127L60.8057 33.7381L56.8593 30.4689Z" fill="#FCFCFC"/>
<path d="M84.5363 34.9006C84.0951 34.7433 83.6779 34.5313 83.2983 34.2714C82.5665 33.7687 82.1083 33.1703 81.8245 32.7633C78.9895 28.6734 76.8796 22.3743 76.8591 22.3094C76.3085 20.6611 75.9118 19.2966 75.3613 17.409C75.1185 16.5848 74.9304 15.9556 74.7594 15.3982L79.8342 7.91593C80.737 7.22858 81.1439 6.94816 81.7116 6.7464L82.6281 6.42153V2.229H74.3832V6.66433L74.6739 6.70195C73.6719 8.17583 71.9484 10.6756 69.8316 13.7225V7.35169C69.8316 7.21832 69.8316 7.03024 69.8351 6.87977C69.989 6.85925 70.177 6.83531 70.3138 6.82163L71.5312 6.68143V2.229H62.8008V6.68827L64.0319 6.81821C64.2165 6.83873 64.4627 6.86267 64.644 6.89003C64.6474 7.04049 64.6474 7.22516 64.6474 7.34827V34.2953C64.6474 34.4048 64.6474 34.5758 64.6474 34.7262C64.5106 34.7536 64.3054 34.7878 63.9977 34.8288L62.8042 34.9861V39.4146H71.5346V34.9998L70.3549 34.8322C70.1155 34.798 69.9479 34.7673 69.8351 34.7399C69.8316 34.5894 69.8316 34.4048 69.8316 34.2953V22.6582L71.2542 20.5585C71.4799 21.239 71.7056 21.8922 71.9416 22.5693L72.1228 23.0925C73.7267 27.7296 75.3237 31.0877 76.1854 32.8933C77.119 34.8562 78.1244 36.8122 79.1742 38.7033L79.5675 39.4112H85.4459V35.2187L84.5329 34.8938L84.5363 34.9006Z" fill="#FCFCFC"/>
<path d="M109.743 7.47535C106.125 3.70002 102.397 2.08936 97.2712 2.08936H95.8965V6.54862L97.131 6.67857C97.3157 6.69908 97.5619 6.72302 97.7397 6.75038C97.7431 6.90085 97.7431 7.08551 97.7431 7.20862V34.1557C97.7431 34.2651 97.7431 34.4361 97.7431 34.5866C97.6063 34.6139 97.4011 34.6481 97.0934 34.6892L95.8999 34.8465V39.275H101.262C105.947 39.275 109.544 37.7532 111.959 34.7473C114.164 32.0013 115.283 28.1029 115.283 23.1614C115.283 14.578 111.815 9.64685 109.743 7.47193V7.47535ZM102.924 8.15245C105.831 9.9341 109.955 14.6738 109.955 23.1648C109.955 28.3662 108.094 33.9403 102.924 34.3643V8.15245Z" fill="#FCFCFC"/>
<path d="M126.229 1.50781C122.936 1.50781 120.49 3.67247 118.965 7.94023C117.71 11.4522 117.074 16.4587 117.074 22.8261C117.074 33.4955 120.733 39.8629 126.865 39.8629C132.658 39.8629 136.118 33.4955 136.118 22.8261C136.118 9.47909 132.422 1.50781 126.232 1.50781H126.229ZM130.791 22.8227C130.791 29.7509 129.139 34.7779 126.861 34.7779C124.191 34.7779 122.399 29.9732 122.399 22.8227C122.399 17.7889 122.83 13.5553 123.647 10.5768C124.331 8.08044 125.278 6.58604 126.181 6.58604C126.595 6.58604 128.038 6.89039 129.286 10.7888C130.254 13.8118 130.791 18.0864 130.791 22.8227Z" fill="#FCFCFC"/>
<path d="M155.953 6.77774C156.104 6.75038 156.339 6.71618 156.702 6.67857L157.943 6.55888V2.08936H148.775V6.55888L150.016 6.67857C150.382 6.71276 150.618 6.75038 150.765 6.77774C150.769 6.9282 150.769 7.10261 150.769 7.20862V18.5654L144.76 6.18613V2.08936H137.586V6.55888L138.827 6.67857C139.193 6.71276 139.429 6.75038 139.576 6.77774C139.58 6.9282 139.58 7.10261 139.58 7.20862V34.1557C139.58 34.2651 139.58 34.4293 139.58 34.5695C139.426 34.6003 139.18 34.6413 138.797 34.6892L137.589 34.8362V39.275H146.758V34.8362L145.55 34.6892C145.161 34.6413 144.914 34.5968 144.767 34.5626C144.764 34.4258 144.764 34.2651 144.764 34.1557V17.6215L150.772 30.0589V34.1557C150.772 34.2651 150.772 34.4293 150.772 34.5695C150.618 34.6003 150.372 34.6413 149.989 34.6892L148.782 34.8362V39.275H157.95V34.8362L156.743 34.6892C156.353 34.6413 156.107 34.5968 155.96 34.5626C155.956 34.4258 155.956 34.2651 155.956 34.1557V7.20862C155.956 7.09919 155.956 6.92478 155.956 6.77774H155.953Z" fill="#FCFCFC"/>
<path d="M172.607 2.08936V6.55204L173.841 6.67857C174.152 6.70934 174.364 6.74012 174.501 6.76748C174.505 6.92136 174.505 7.09919 174.505 7.20862V29.5357C174.505 34.4122 173.277 34.7781 171.403 34.7781C169.529 34.7781 168.4 34.4122 168.4 29.5357V7.20862C168.4 7.09577 168.4 6.91794 168.404 6.76748C168.541 6.74354 168.753 6.71276 169.064 6.67857L170.298 6.55204V2.08936H161.373V6.54862L162.604 6.67857C162.789 6.69908 163.038 6.72302 163.216 6.75038C163.22 6.90085 163.22 7.08551 163.22 7.20862V29.3408C163.22 34.5421 164.181 39.8597 171.307 39.8597C174.563 39.8597 176.792 38.8578 178.129 36.7991C179.207 35.1406 179.685 32.8425 179.685 29.3408V7.20862C179.685 7.08551 179.685 6.90085 179.689 6.75038C179.87 6.72302 180.116 6.69908 180.304 6.67857L181.535 6.54862V2.08936H172.61H172.607Z" fill="#FCFCFC"/>
<path d="M197.404 8.4741L197.927 9.59233L201.996 8.19368L199.513 1.72023L198.488 1.8023C196.747 1.94251 194.948 2.08955 193.149 2.08955C191.351 2.08955 189.593 1.9938 187.849 1.80572L186.796 1.69287L184.303 8.19368L188.372 9.59233L188.895 8.4741C189.405 7.38664 189.815 7.10281 190.557 7.01731V34.1593C190.557 34.2687 190.557 34.4431 190.557 34.5902C190.407 34.6175 190.171 34.6517 189.808 34.6894L188.567 34.8091V39.2786H197.735V34.8091L196.494 34.6894C196.128 34.6552 195.892 34.6175 195.745 34.5902C195.742 34.4397 195.742 34.2653 195.742 34.1593V7.01731C196.484 7.10281 196.894 7.38664 197.404 8.4741Z" fill="#FCFCFC"/>
<path d="M214.577 15.6485C213.476 13.624 212.502 12.0065 211.718 10.7036C210.539 8.74754 209.687 7.33179 209.687 6.62734C209.687 6.61366 209.687 6.6034 209.687 6.59314C209.697 6.59314 209.708 6.59314 209.721 6.59314C209.95 6.59314 210.477 7.05138 211.264 7.75583C211.479 7.95076 211.715 8.16278 211.978 8.3919L212.59 8.92879L216.287 7.58485L213.671 0.974609H210.833L210.033 1.55254C209.803 1.5286 209.557 1.5115 209.284 1.5115C206.425 1.5115 204.506 3.45046 204.506 6.34009C204.506 8.41583 205.666 10.4505 207.594 13.8394C208.36 15.1868 209.232 16.7154 210.221 18.5791C212.467 22.6451 214.769 27.3301 214.769 31.2422C214.769 33.2256 213.384 34.7816 211.619 34.7816C209.53 34.7816 208.805 33.506 207.861 31.4098L207.331 30.2334L203.549 31.6526L204.52 39.2819H207.382L207.912 38.9604C209.099 39.5315 210.463 39.8666 211.619 39.8666C215.631 39.8666 219.95 37.0454 219.95 30.8558C219.95 26.0545 217.368 20.7096 214.577 15.6519V15.6485Z" fill="#FCFCFC"/>
<path d="M219.156 1.00879C220.503 1.00879 221.608 2.11335 221.608 3.4607C221.608 4.80805 220.503 5.90577 219.156 5.90577C217.809 5.90577 216.711 4.80805 216.711 3.4607C216.711 2.11335 217.809 1.00879 219.156 1.00879ZM219.156 5.43385C220.254 5.43385 221.133 4.54816 221.133 3.45728C221.133 2.3664 220.254 1.4807 219.156 1.4807C218.058 1.4807 217.179 2.35956 217.179 3.45728C217.179 4.555 218.065 5.43385 219.156 5.43385ZM218.281 2.33562C218.281 2.26723 218.335 2.20568 218.411 2.20568H219.419C219.843 2.20568 220.257 2.49293 220.257 3.0093C220.257 3.4949 219.943 3.68298 219.741 3.75821C219.864 4.01127 219.987 4.26774 220.103 4.51396C220.151 4.60287 220.083 4.69862 219.987 4.69862H219.679C219.625 4.69862 219.577 4.65075 219.556 4.60287L219.214 3.79925H218.79V4.56868C218.79 4.63707 218.735 4.69862 218.66 4.69862H218.407C218.332 4.69862 218.277 4.63707 218.277 4.56868V2.33562H218.281ZM219.382 3.35127C219.587 3.35127 219.724 3.2008 219.724 3.01614C219.724 2.8178 219.587 2.68101 219.382 2.68101H218.776V3.34785H219.382V3.35127Z" fill="#FCFCFC"/>
</g>
<defs>
<clipPath id="clip0_6107_84">
<rect width="221.612" height="40" fill="white"/>
</clipPath>
</defs>
</svg>
