<?xml version="1.0" encoding="UTF-8"?>
<svg id="Layer_1" xmlns="http://www.w3.org/2000/svg" version="1.1" viewBox="0 0 748 1280">
  <!-- Generator: Adobe Illustrator 29.2.1, SVG Export Plug-In . SVG Version: 2.1.0 Build 116)  -->
  <defs>
    <style>
      .st0 {
        fill: #e63d78;
      }

      .st1 {
        fill: #0f9ed9;
      }

      .st2 {
        fill: #fff;
      }

      .st3 {
        fill: #f58032;
      }

      .st4 {
        fill: #fee370;
      }
    </style>
  </defs>
  <path d="M218.8,1130.8c-11.6,17.5-25.6,32.7-41.4,46.4-11.9,9.4-25-8.7-12.3-17.1,16.3-9.8,31.9-22,45-35.8,4.4-5.1,12.3.8,8.7,6.5"/>
  <path d="M475.7,1198.5c-15.7-15.5-38.2-23.7-59.4-28.8-6.7-1.3-5.4-11.1,1.3-10.8,19,1.6,37.3,5.5,54.8,13.4,5.9,2.8,11.7,6.2,17.3,10.4,11.5,9.5-3.1,26.1-14,15.7"/>
  <path d="M389.5,612.5c0,2.8,1.3,5.6,4.1,7.2,0,0,.1-.1.2-.2-1.4-2.3-2.8-4.7-4.2-7"/>
  <g>
    <path d="M389.1,357.1c-7.6,17.5-11,34.2-5.6,37.6,7.6,4.8,8.7-1.9,12.1-7.2,3.4-5.3,4.2-12.3,10.1-27.2,6.9-17.6-9-20.8-16.6-3.3Z"/>
    <path d="M727.7,338.3c-3.4-2.3-6.8-4.8-10.3-6.9-9.7-5.7-21-11-31.4-15.1-40.5-16.2-82.3-27.7-124.6-37.9l-6.9-48.3c-.3-6.3-6.4-10.9-12.3-9.5-5.9-82.2-38.2-163.5-118.6-194.4-11.5-4.2-23.4-7.4-35.4-9.2l-3-.5h-.8c-6-1.3-13.1.4-18.1,3.2-.8,1.5-1.5,3.8-1.5,6.2,0,2.4.8,4.9,1.5,6.2l.8,1.6,1.6,3.1c2.1,4.3,4.7,8.9,7.2,13.5-12.3-5.1-25.7-7.9-38.2-9.2-11.5-1.4-20.1,11.6-13.8,21.5,9.7,16.4,15.2,36.7,13.6,55.9-2.7,1.3-5.2,2.8-7.5,4.5-1.5,1.1-3.1,2.3-4.5,3.6-7.9,7-14.1,15.9-20,24.2-25.5,39.2-44,81.9-64.7,123.2-23.3,47.9-47.7,95.4-76.6,140.1-12.5,20.5-23,42-29,65.7-13.8,52.9,5.4,98.8,46.7,132.8,12.5,10.4,25.2,20.4,39.8,27.6,18.6,8.8,39.6,15.5,61.1,18.3-2.2,5.3-4.2,10.6-5.9,16-22.9-.8-46.5-5.2-65.8-17.7-49.9-32.3-83.6-85.5-106.8-127.4-16.3-29.5-23-52-30.2-79.4-2-7.5-8.8-12-16.3-9.3-5.8,2.3-8.4,6.5-11.4,11-8.1,15.7-9.2,51.8-4.1,71.2,4.8,18.2,10.1,36.1,17.3,53.4-2.7-2.9-5.3-5.9-7.7-9-2.1-2.5-3.3-4.5-6.3-6.9-3.3-2.9-9.8-3.6-13.5,0-9,8.7-2.5,30.4.4,40.8,8.7,28.3,33.1,51.6,55.6,70.5-6.3-1.3-12.4-3.4-18.4-6.4-2.2-1.1-4.7-2.3-7.5-2.7-6.9-1-12.7,5.5-10.4,12.5,2.3,6.1,6.2,9.2,10,13.5,24.7,24.7,53.1,45.5,83.3,62.7,25,14.2,85.5,28.9,115.7,34.4-2,9.4-5.4,18.4-11.2,25.8-3,4-6.8,7.8-10.9,11.7-1.2,0-2.3,0-3.4-.3-9.3-2.3-16.3-11.9-20.5-20.3-1.8-4-6.5-6.3-11-5-.4,0-1.7.5-2.1.6-5.9,1.7-11.1,5.5-15,10.3-.6-1.6-1.2-3.1-1.6-4.6-1.5-4.2-.4-7.7-3-11.2-3.2-4.3-9.3-5.1-13.5-1.9-16.1,12.8-21.2,33.7-23.7,52.8-5.7,51.9,14.4,105.2,51.7,141.4,10.9,15.4,26.8,28.3,46.5,38-7.7,12.5-14.8,24.6-22.7,35.8-14.6,20.4-32.3,38.9-57.7,37.9-23.7-.2-45.7-6.7-69.6-9.2-12.8-1.3-26.6-.4-39.3,3-8.5,2.4-17.2,5.2-24.7,10.9-18,13.6-11.1,34.3,5.7,44.2,18.2,11.7,39.5,13.9,60.3,15.6,26.1,3.8,27.1,16.6,29.4,40.7.9,9.2,2.6,19.2,11.3,25.2,8.7,5.8,18.4,4.3,27.4,2.2,14.6-3.8,26.7-8.8,40.6-13,8.5-2.7,13.5-.2,18.3,7.6,8,11.9,10.6,29.4,25.8,36,11.6,4.6,24.9-2.9,28.5-14.1,5-16.5.6-33.7-1.4-49.8-2.6-16.9-5.2-33.5-6.4-50.4-3.2-36.7,3.4-79.9,34.1-103,8,1.6,16.4,3,24.8,4-2.7,19.9-7,39.6-23.2,51.4-2.8,1.9-5.7,3.8-8.3,6-19.5,15.6-24.5,41.3-4.8,59.1,12.1,11.1,27.4,17.1,42.4,21.9,28.4,7.9,52.4,22.1,69.3,46.5,6.7,8.8,13,19.4,22.7,25.8,6.8,4.2,15.5,6.8,23.5,4.7,10.4-2.8,12.8-13.6,13.2-22.4.9-6.2.6-6.9,5.3-7.9,4.7-.6,9.8-.9,14.4-.1,5.2,1.3,10.2,5.6,16,7,14.4,3.8,35.2,5.3,40.5-12.2,3.3-12.1-2.9-23.8-4.8-34.4-.1-.7-.2-1.3,0-2,1.3,0,2.7,0,3.9,0,5.2.3,11.9,1.3,17.4,2,6.1.8,10.3,1.8,17.2-.4,14.5-5.9,11.2-21.9,2.2-31.4-22-24-55.8-30.2-86.9-29.6-12.5,0-24,2.1-35.7,1.2-24.3-3.1-47.6-22.8-56.3-45.1-4.8-12.4-4.6-25.8-.6-38.4,51.1-4.1,99-21.2,123.8-56.9,2.8-4.3,5.1-8.7,7.2-13.2,3.2.3,6.5-.6,9.3-2.8,16.6-12.6,29.4-29.8,37.6-48.1,13.9-31.6,17.1-66.8,14.4-100.8-5.3-43.6-28.4-82.3-54.3-116.4-28.7-37.1-79.7-89.1-126.1-104.7-.7-.2-1.5-.5-2.2-.7.3-.5.7-.9,1-1.4,7-10.3,13.8-20.6,20.4-31,28.5-46,56.6-92.2,79.8-141.2,2.6-6,5.1-12.2,7.4-18.3,20.5,12.8,41,21.9,57.2,20.6,28.7-2.2,46.4-28.2,62.6-47.7,8.1-9.5,15.5-18.1,26.3-23.1,2.4-1.1,4.8-1.8,7.4-2.4,11.5-2.3,22.8-5.1,33.9-5,2.7,0,5.3.6,7.9,1.3,4.5,1.3,9.9,1.4,14.1.8,3.2-.2,6.2-1.7,8.1-4.5,3.2-4.7,1.9-11-2.7-14.2ZM186.8,897.5c-3.8,10.8-5.9,21.2-6.5,31.1-5.6-11.1-9.8-22.9-12.6-35-4.8-20.4-6.7-52.6,3.3-74,2.7,5.3,6.2,10.3,10.4,15,1.4,1.4,3.2,2.4,5.3,2.8,5,.8,9.8-2.7,10.5-7.7.7-4.6,2.4-8.4,5.5-11,5.2,8,11.8,15.1,20.4,19.4-16.4,16.4-28.7,37.3-36.3,59.3ZM255.7,757.5c-10.9-1.7-21.6-4-32.3-6.5-68.1-16.5-78.2-16-132.6-60.5,11.1,2.1,22.5,2.8,33.4,3.3,4.4.3,8.8-2.3,10.4-6.7,2.3-6.3-1.7-12.4-7.9-14-2.9-.6-7.5-3-10.5-4.8-12-7.1-28.2-16-38.1-25.9-13.4-13.1-24.1-28-29.8-45.9-1.2-3.9-2.5-8.1-3.3-12.4,14.3,16.8,30.9,31.5,47.2,46.2.4.3.7.7,1.1,1,10.3,7.8,22.9-6.1,14-15.6-7.7-7.9-14.1-18.1-19.7-28.7-11.2-21.5-19.4-34.9-25.3-58.5-4.6-19-8.6-39.1-2.7-57.2,7.8,27.4,13.7,43.9,28.5,68.2,49.4,80.8,83,145.2,184.4,152-4.6,19.7-6.7,40-8,60-.1,2.4-.2,4.9-.3,7.4-2.7-.3-5.6-.8-8.4-1.2ZM261.1,1066.5c-15.7,33.5-13.9,71.5-9.4,106.8,2,16.8,5.3,34.1,6.6,50.6.2,5.9.9,11.9-1.8,16.6-.1.1-.5.3-1.1.4-.2,0-.3,0-.4,0-.1,0,0,0,0,0-1.1-.8-2.5-2.8-3.6-4.7-6.8-12.1-10.8-26.6-23.1-35.8-7.5-5.7-17.7-7.2-26.8-5.1-1.8.4-5.4,1.4-7.2,2-11.9,3.6-24.9,8.5-36.3,11.4-4.2.9-7.9,1.7-10.3.9,0-.1-.2-.3-.4-.7-1-2.2-1.3-6.5-1.6-9.2-1-9.2-1.4-18.4-4.4-27.7-7.4-24.4-30.5-32.3-53.7-33.7-10.5-.8-21.6-2.8-31.2-6.7-5.4-2.1-13-6.2-15.3-10.4.6-.7,2.7-2.5,5.4-3.8,13.5-6.2,29.1-8.2,44.1-6.6,24,2.8,52.7,11,78.7,9.8,48.3-3.1,73.9-51.6,96.9-87.8,4.5,1.6,9.3,3.1,14.2,4.5-8.1,8.5-14.5,18.5-19.5,29.1ZM441.9,645c14.4,10.5,27.9,22.6,40.6,35.4,39.3,41.1,76.7,90.7,83.9,148.1,1.7,30-1.7,61.5-15.1,88.6-4,8.2-9.2,15.8-15.2,22.3,3.5-30.3-1.9-62.4-8.5-91.2-5.7-23-13-46-23.2-67.4-24.2-51.1-52.7-100.1-81.7-148.6,6.6,3.9,13,8.3,19.1,12.7ZM340.4,141.8c17.6-11.1,38.3-13.2,58.9-9.7,9.9,1.5,13-12.8,3.2-15.4-13.4-3.6-27.8-4.8-41.9-3.1,2-13.6,1.4-27.3-1.4-40.8,10.5,1.3,20.4,4.4,29.9,11,2.3,1.7,5,3.1,8.1,2.8,5.5-.5,9.6-5.3,9.2-10.9,1.1-7,0-12.6-1.6-17.6-2-5.9-4.7-11.4-7.6-16.7,82.4,23.9,112.1,102.9,118.3,184.1,0,.4,0,.8,0,1.2-52.1,7.6-103.7-8-147.4-38.6-13.7-9.6-28.5-21.1-38.8-34.4,3.6-4.6,7.3-8.7,11-11.8ZM318.4,169.6c4,4.7,8.4,9.1,13,13.4,51,46.2,117,73,185.2,64.5,5.8-.7,11.7-1.7,17.6-3l2,43.1c-.8.4-1.6.7-2.4,1-5.8,1.8-11.8,3-17.9,3.7-12.4,1.4-25.2.8-37.9.2-12-.8-24.7-2.1-36.5-3.9-65.1-9.4-103.5-40.8-136.8-94.7,3.9-7.1,8.6-15.7,13.8-24.2ZM318.9,662.1c0-1-.3-1.9-.7-2.6,16.1-1.4,31.8-5.7,46.2-13.5,2.5-1.3,4.9-2.8,7.2-4.5,3.3,6.2,6.1,13,8.3,19.9,4.8,15.8,9.1,38.4,1.9,54.2-2.7,5.8-6.9,10.7-13.2,14-6,2.8-14.8,5-21.3,2.8-8-3.1-13.8-10.7-17.9-20h0c-7-15.9-9.4-36.9-10.6-50.3ZM449.9,1151c21,1.3,40.7-2.9,61.2.4,16.4,1.5,35.9,9.1,46.9,20.5-2.3-.3-4.5-.7-6.1-.9-6.9-.9-14.7-2.1-22-1.2-10.9,1.4-16.5,9.8-16.7,20.4-.2,10.5,5.8,20.4,5.5,29.7-.2,0-.4.1-.6.1-.6,0-1.1.1-1.8,0h-1c-3.8-.2-8-.6-10.9-1.5-5.6-1.9-11.3-6.6-17.8-7.5-6.7-1.4-13.5-1.1-20.2-.5-18.3,2-24.2,14.1-25.6,30.3-2.2-.6-4.1-1.8-6.4-4.1-9.7-10.7-19.2-27.4-31-38.1-16.1-15.8-36.1-26.3-57.1-32.9-15-5-36.5-11.2-44-25.1-3.8-10.1,7.5-18.6,15.2-23.5,5.3-3.4,9.8-8,13.7-12.8,12.5-16,17.2-35.9,19.9-55.4,8.1.4,16.3.6,24.5.5-3.4,14.5-2.8,30.1,2.5,44,11.4,29.5,40.7,53.8,72,57.7ZM454.8,482.5c-22.5,39.5-45.5,79.2-71.6,116.3-8.4,11.8-16.4,22.2-28.9,29.1-37,19.7-86.5,10.8-123.1-6.6-12.9-6.4-24.5-15.7-35.4-24.8-35.3-29.2-51.7-66.4-39.9-111.7,6.7-28.1,23-55.1,38.7-79.3,11.9-19.4,23-39.2,33.6-59.3,1.9,9.2,5.5,17.8,11.5,25.3,12.9,16.3,34.6,21.6,54.1,20.3,3.7-.2,7.4.2,11,1.1,22.5,5.5,38.8,27.3,51.6,46,13.3,16,33.3,24.5,53.2,27.6,15.8,2.5,32,1.5,47.4-2.9,3.4-.9,6.7-2,9.9-3.4-4,7.4-8.1,14.8-12.1,22.1ZM486.1,422.4c-.3.7-.6,1.4-1,2.1-.2.2-.4.3-.6.5-9.4,8.9-20.9,15.4-33.3,19.3-27.8,8.5-65.4,4.4-83.7-20.4-14.6-20.7-33.1-41.1-58.7-47.6-7.4-2.1-15.6-1.3-23.3-1.5-40.4-1.6-44.8-36.9-35.4-69.2.3-1.2.4-2.3.4-3.4,15-30.3,29.5-60.8,44.8-90.7,16.4,26.7,37.2,52,63.3,69.7,0,0,0,0,0,0,26.2,25,52.6,50,80.3,73.9,13.3,11.3,33.8,29.1,55.7,45-2.6,7.5-5.4,14.9-8.5,22.2ZM661.6,337c-19.5,3.4-35.8,18.5-47.6,32.7-14.2,15.5-29.6,42.5-52.7,38.5-14-3.3-27.4-10.6-40.2-18.9-6.5-4.2-12.9-8.8-19.1-13.2-2.2-1.6-4.4-3.1-6.6-4.7-27.6-20.5-53.9-42.5-80-64.9,16.6,4.6,33.7,7.5,50.8,9.5,13.5,1.4,30.6,3.1,47.1,2.4,8.7-.4,17.2-1.4,25-3.5,5.8-1.6,11.1-3.7,15.8-6.6,4-2.6,7.9-6.5,9-11.3,24.9,6.6,49.9,14,74.2,22.3,13.4,4.7,26.8,9.4,39.7,15-5.2.7-10.3,1.7-15.4,2.7Z"/>
    <path d="M334.4,452.5c-6-9.7-16.8-2.8-11.1,7.3,5.7,10.1,9.2,13,18.1,16.2,8.9,3.2,3.8-5.1,2.7-8.7-1.1-3.6-4.6-6.5-9.8-14.8Z"/>
    <path d="M278.6,421.8c-9.7,1.1-14.1.1-17.6,1.5-3.5,1.4-13.2,2.5-5.2,7.5,8.1,5,12.5,6,24,4.2,11.4-1.8,10.2-14.5-1.2-13.2Z"/>
    <path d="M314.9,301.7c-8.9-1.6-7.3,5-8.5,11.2-.7,3.5-.3,7.2.1,12.7h0c-9.7-9.1-18.7-14.4-22.8-11.7-7.5,4.9-1.9,8.7,1.4,14,3.4,5.3,9.4,9,20.4,20.6,1.8,1.9,3.5,3.3,5.1,4.2,0,0,0,0,0,0,1.7,1.9,3.9,2.3,6,1.5,0,0,0,0,0,0h0c2.2-.3,3.8-1.8,4.5-4.1,0,0,0,0,0,0,1.7-2.7,2.8-6.6,2.9-11.5.3-19.1-2.8-35.8-9.2-36.9Z"/>
  </g>
  <path class="st3" d="M511,1151.4c-20.5-3.3-40.2.9-61.2-.4-31.3-4-60.6-28.3-72-57.7-5.3-13.9-5.9-29.5-2.5-44-8.2.2-16.4,0-24.5-.5-2.7,19.5-7.4,39.5-19.9,55.4-3.9,4.8-8.5,9.3-13.7,12.8-7.7,4.9-18.9,13.4-15.2,23.5,7.5,13.9,29.1,20.1,44,25.1,21,6.7,41,17.1,57.1,32.9,11.8,10.7,21.2,27.4,31,38.1,2.3,2.2,4.2,3.4,6.4,4.1,1.3-16.2,7.3-28.2,25.6-30.3,6.7-.7,13.6-.9,20.2.5,6.5,1,12.2,5.6,17.8,7.5,3,.9,7.1,1.4,10.9,1.5h1c.7,0,1.2,0,1.8,0,.2,0,.4,0,.6-.1.3-9.4-5.7-19.3-5.5-29.7.3-10.5,5.9-18.9,16.7-20.4,7.3-.9,15.1.4,22,1.2,1.5.2,3.8.6,6.1.9-10.9-11.4-30.5-19-46.9-20.5M475.7,1198.5c-15.7-15.5-38.2-23.7-59.4-28.8-6.7-1.3-5.4-11.1,1.3-10.8,19,1.6,37.3,5.5,54.8,13.4,5.9,2.8,11.7,6.2,17.3,10.4,11.5,9.5-3.1,26.1-14,15.7"/>
  <path class="st3" d="M280.6,1037.4c-4.9-1.4-9.6-2.9-14.2-4.5-22.9,36.1-48.6,84.6-96.9,87.8-26,1.2-54.6-7-78.7-9.8-15-1.6-30.6.4-44.1,6.6-2.7,1.3-4.8,3.1-5.4,3.8,2.2,4.1,9.8,8.3,15.2,10.4,9.6,3.9,20.7,5.9,31.2,6.7,23.2,1.4,46.4,9.4,53.7,33.7,3,9.3,3.4,18.5,4.4,27.7.4,2.7.6,7,1.6,9.2.2.4.3.6.4.7,2.3.8,6.1,0,10.3-.9,11.4-2.9,24.4-7.8,36.3-11.4,1.7-.6,5.4-1.6,7.2-2,9-2.1,19.2-.6,26.8,5.1,12.4,9.2,16.4,23.6,23.1,35.8,1.1,1.9,2.4,3.9,3.6,4.7,0,0,0,0,0,0s.2,0,.4,0c.6-.2.9-.3,1.1-.4,2.7-4.6,2-10.7,1.8-16.6-1.3-16.5-4.6-33.8-6.6-50.6-4.5-35.3-6.3-73.3,9.4-106.8,4.9-10.6,11.4-20.7,19.5-29.1M218.8,1130.8c-11.6,17.5-25.6,32.7-41.4,46.4-11.9,9.4-25-8.7-12.3-17.1,16.3-9.8,31.9-22,45-35.8,4.4-5.1,12.3.8,8.7,6.5"/>
  <path class="st4" d="M223.1,838.1c-16.4,16.4-28.7,37.3-36.3,59.3-3.8,10.8-5.9,21.2-6.5,31.1-5.6-11.1-9.8-22.9-12.6-35-4.8-20.4-6.7-52.6,3.3-74,2.7,5.3,6.2,10.3,10.4,15,1.4,1.4,3.2,2.4,5.3,2.8,5,.8,9.8-2.7,10.5-7.7.7-4.6,2.4-8.4,5.5-11,5.2,8,11.8,15.1,20.4,19.4"/>
  <path class="st2" d="M514,948.5c-2.4,11.1-6.4,21.7-12.5,31.3-39.2,51.6-123.8,51.7-182.6,42.8-40-6.5-88-22-108.6-59.3-3.4-6.4-5.4-13.1-6.3-19.9,30.7,16.2,77.4,28.1,126.3,31.8,10.1.8,21.2,1.3,33.2,1.3,42.6,0,95.9-6.2,150.6-27.9"/>
  <path class="st2" d="M517,918.7c-128,57.1-267.5,24.9-310.9-4.6l-.4.6c2-8.6,5.1-17,8.8-24.8,5.7-12.8,13-24.1,22.5-34.3,24.2,21.2,68.2,37.5,117.4,43.1,12.9,1.5,25.8,2.2,38.5,2.2,42.8,0,84.1-8.2,120.1-24.1,2.3,13.7,3.9,27.8,3.9,41.8"/>
  <path class="st2" d="M507.8,850.4c-96.6,45.7-213.1,18.7-251.9-13.3,3.9-3.9,7.7-8.1,11-12.8,5.3-7.2,8.9-15.1,11.4-23.4,25.7,14.6,61.1,21.1,97.7,21.1s83.1-8,115.5-21.8c6.7,16.2,12.3,32.8,16.2,50.1"/>
  <path class="st2" d="M480.8,776.3c-64.4,27.2-159.6,25.6-197.9-3.7h0c.5-6.9.6-13.8.6-20.6.2-9.3.7-18.5,1.6-27.7,12,5.7,24.2,10.1,36.3,13.2h0c11.7,15.7,30.1,23.1,56.7,11.9,4.9-2.4,9.1-5.3,12.7-8.6h0c21.7-3.9,41.5-12.6,57.7-26.3,2.4,4.4,4.8,8.8,7.2,13.2,8.7,16.1,17.2,32.2,25.1,48.6"/>
  <path class="st2" d="M307.7,705.5c-6.4-2.5-12.8-5.5-19.1-8.9,2.1-12.5,5.1-24.9,9.8-36.6,2.3.1,4.5.2,6.7.2-.2.6-.4,1.3-.4,2-.3,5.3-.4,10.5-.2,15.8.2,9.1,1.2,18.5,3.2,27.5"/>
  <path class="st2" d="M407,709c4.7-27.4-5.6-60.6-19.4-82.1,2.1-2.3,4.1-4.7,5.9-7.1.1.1.3.2.4.3,14,23.7,28,47.3,41.4,71-8.2,7.7-17.8,13.7-28.4,17.9"/>
  <path class="st4" d="M551.4,917.1c-4.1,8.2-9.2,15.8-15.2,22.4,3.5-30.3-1.9-62.4-8.5-91.2-5.7-23-13-46-23.2-67.4-24.2-51.1-52.7-100.1-81.7-148.6,6.6,3.9,13,8.3,19.1,12.7,14.4,10.5,27.9,22.6,40.6,35.4,39.3,41.1,76.7,90.7,83.9,148.1,1.7,30-1.7,61.5-15.1,88.6"/>
  <path class="st4" d="M272.4,691.3c-4.6,19.7-6.7,40-8,60-.1,2.4-.2,4.9-.3,7.4-2.7-.3-5.6-.8-8.4-1.2-10.9-1.7-21.6-4-32.3-6.5-68.1-16.5-78.2-16-132.6-60.5,11.1,2.1,22.5,2.8,33.4,3.3,4.4.3,8.8-2.3,10.4-6.7,2.3-6.3-1.7-12.4-7.9-14-2.9-.6-7.5-3-10.5-4.8-12-7.1-28.2-16-38.1-25.9-13.4-13.1-24.1-28-29.8-45.9-1.2-3.9-2.5-8.1-3.3-12.4,14.3,16.7,30.9,31.5,47.2,46.2.4.3.7.7,1.1,1,10.3,7.8,22.9-6.1,14-15.6-7.7-7.9-14.1-18.1-19.7-28.7-11.2-21.5-19.4-34.9-25.3-58.5-4.6-19-8.6-39.1-2.7-57.2,7.8,27.4,13.7,43.9,28.5,68.2,49.4,80.8,83,145.2,184.4,152"/>
  <path class="st3" d="M457,463.8c-15.4,4.4-31.7,5.4-47.4,2.9-19.9-3.2-40-11.7-53.2-27.6-12.8-18.7-29.2-40.5-51.6-46-3.7-.9-7.4-1.3-11-1.1-19.6,1.3-41.3-4-54.1-20.3-6-7.5-9.6-16.2-11.5-25.3-10.6,20.1-21.7,40-33.6,59.3-15.6,24.2-31.9,51.2-38.7,79.3-11.8,45.3,4.6,82.5,39.9,111.7,11,9.1,22.5,18.4,35.4,24.8,36.6,17.4,86.1,26.3,123.1,6.6,12.6-6.9,20.5-17.3,28.9-29.1,26.1-37.2,49.2-76.8,71.6-116.3,4.1-7.3,8.2-14.7,12.1-22.1-3.2,1.3-6.5,2.4-9.9,3.4M279.7,435c-11.4,1.8-15.9.8-24-4.2-8.1-5,1.6-6.1,5.2-7.5,3.5-1.4,7.9-.4,17.6-1.5,11.4-1.3,12.6,11.4,1.2,13.2M341.5,475.9c-8.9-3.2-12.5-6.1-18.1-16.2-5.7-10.1,5-17,11.1-7.3,5.2,8.3,8.7,11.2,9.8,14.8,1.1,3.6,6.3,11.9-2.7,8.7"/>
  <path class="st4" d="M438.8,355.2c-27.6-23.9-54-48.9-80.3-73.9,0,0,0,0,0,0-26.1-17.7-46.9-43-63.3-69.7-15.3,29.9-29.8,60.5-44.8,90.7,0,1.1-.1,2.2-.4,3.4-9.4,32.3-5,67.6,35.4,69.2,7.7.2,15.9-.6,23.3,1.5,25.6,6.5,44.2,26.8,58.7,47.6,18.3,24.8,55.9,28.9,83.7,20.4,12.4-3.9,23.9-10.4,33.3-19.3.2-.2.4-.4.6-.5.3-.7.7-1.4,1-2.1,3.1-7.3,5.9-14.7,8.5-22.2-22-15.8-42.4-33.7-55.7-45M324.1,338.6c-.1,4.9-1.2,8.8-2.9,11.5-.7,2.3-2.3,3.8-4.5,4.1-2.1.8-4.3.3-6-1.5-1.6-.9-3.3-2.3-5.1-4.2-11-11.6-17.1-15.3-20.4-20.6-3.3-5.3-8.9-9.1-1.4-14,4.2-2.7,13.1,2.6,22.8,11.7-.4-5.5-.8-9.2-.1-12.7,1.1-6.2-.4-12.8,8.5-11.2,6.3,1.1,9.5,17.7,9.2,36.9M405.8,360.4c-5.9,14.9-6.7,21.9-10.1,27.2-3.4,5.3-4.5,12-12.1,7.2-5.4-3.4-2-20.1,5.6-37.6,7.6-17.6,23.6-14.3,16.6,3.3"/>
  <path class="st4" d="M515.5,226.7c-52.1,7.6-103.7-8-147.4-38.6-13.7-9.6-28.5-21.1-38.8-34.4,3.6-4.6,7.3-8.7,11-11.8,17.6-11.1,38.3-13.2,58.8-9.7,9.9,1.5,13-12.8,3.2-15.4-13.4-3.6-27.8-4.8-41.9-3,2-13.6,1.4-27.3-1.4-40.8,10.5,1.3,20.4,4.4,29.9,11,2.3,1.7,5,3.1,8.1,2.8,5.5-.5,9.6-5.3,9.2-10.9,1.1-7,0-12.6-1.6-17.6-2-5.9-4.7-11.4-7.6-16.7,82.4,23.9,112.1,102.9,118.3,184.1,0,.4,0,.8,0,1.2"/>
  <path class="st0" d="M536.1,287.5c-.8.4-1.6.7-2.4,1-5.8,1.8-11.8,3-17.9,3.7-12.4,1.4-25.2.8-37.9.2-12-.8-24.7-2.1-36.5-3.9-65.1-9.4-103.5-40.8-136.8-94.7,3.9-7.1,8.6-15.7,13.8-24.2,4,4.7,8.4,9.1,13,13.4,51,46.2,117,73,185.2,64.5,5.8-.7,11.7-1.7,17.6-3l2,43.1Z"/>
  <path class="st0" d="M677,334.3c-5.2.7-10.3,1.7-15.4,2.7-19.5,3.4-35.8,18.5-47.6,32.7-14.2,15.5-29.6,42.5-52.7,38.5-14-3.3-27.4-10.6-40.2-18.9-6.5-4.2-12.9-8.8-19.1-13.2-2.2-1.6-4.4-3.1-6.6-4.7-27.6-20.5-53.9-42.5-80-64.9,16.6,4.6,33.7,7.5,50.8,9.5,13.5,1.4,30.6,3.1,47.1,2.4,8.7-.4,17.2-1.4,25-3.5,5.8-1.6,11.1-3.7,15.8-6.6,4-2.6,7.9-6.5,9-11.3,24.9,6.6,49.9,14,74.2,22.3,13.4,4.7,26.8,9.4,39.7,15"/>
  <path d="M330,123c-1.5,1.1-3.1,2.3-4.5,3.6.8-1.1,1.8-2,3.1-2.9.5-.3.9-.5,1.4-.7"/>
  <path d="M394,620c-.2,0-.3-.2-.4-.3-2.7-1.7-4-4.4-4.1-7.2,1.4,2.4,2.8,4.7,4.2,7,0,.2.2.3.3.4"/>
  <path class="st1" d="M321.3,737.5c-12.1-3.1-24.3-7.5-36.3-13.2.2-2.1.4-4.1.6-6.1.8-7.2,1.7-14.4,2.9-21.6,6.3,3.4,12.8,6.4,19.1,8.9,2.7,12.1,7.2,23.3,13.6,32"/>
  <path class="st1" d="M448.5,714.5c-16.3,13.6-36,22.4-57.7,26.3,9.1-8.4,14.1-19.5,16.2-31.8,10.6-4.2,20.2-10.2,28.4-17.9,4.4,7.8,8.8,15.6,13.1,23.5"/>
  <path class="st1" d="M491.5,800.3c-32.5,13.8-74.8,21.8-115.5,21.8s-72-6.5-97.7-21.1c2.7-9.1,4-18.7,4.5-28.3h0c38.3,29.2,133.5,30.8,197.9,3.6,3.8,7.9,7.4,15.9,10.7,24"/>
  <path class="st4" d="M381.9,715.6c-2.7,5.8-6.9,10.7-13.2,14-6,2.8-14.8,5-21.3,2.8-8-3.1-13.8-10.7-17.9-20h0c-7-15.9-9.4-36.9-10.6-50.3,0-1-.3-1.9-.7-2.6,16.1-1.4,31.8-5.7,46.2-13.5,2.5-1.3,4.9-2.8,7.2-4.5,3.3,6.2,6.1,13,8.3,19.9,4.8,15.8,9.1,38.4,1.9,54.2"/>
  <path class="st1" d="M513.1,876.9c-35.9,15.8-77.3,24.1-120.1,24.1s-25.6-.7-38.5-2.2c-49.3-5.7-93.2-21.9-117.4-43.1,1.5-1.7,3.1-3.3,4.7-4.9,4.6-4.5,9.4-8.9,14.1-13.6,38.8,32,155.3,59,251.9,13.3.2.8.4,1.7.6,2.5,1.7,7.7,3.4,15.8,4.8,24"/>
  <path class="st1" d="M517,918.7c0,10.2-.9,20.2-2.9,29.8-54.7,21.8-108,27.9-150.6,27.9s-23.1-.5-33.2-1.3c-48.9-3.7-95.6-15.5-126.3-31.8-1.3-9.4-.4-19.2,1.8-28.7l.4-.6c43.4,29.5,182.8,61.7,310.9,4.6"/>
</svg>