<svg width="130" height="145" viewBox="0 0 130 145" fill="none" xmlns="http://www.w3.org/2000/svg">
<path d="M47.4824 13.8008C52.4268 -3.93525 77.5731 -3.93525 82.5175 13.8008L83.055 15.7289C85.7138 25.266 95.5134 30.9238 105.102 28.4578L107.041 27.9592C124.873 23.3732 137.446 45.1505 124.558 58.3005L123.157 59.7301C116.227 66.8011 116.227 78.1168 123.157 85.1879L124.558 86.6174C137.446 99.7674 124.873 121.545 107.041 116.959L105.102 116.46C95.5134 113.994 85.7138 119.652 83.055 129.189L82.5175 131.117C77.5731 148.853 52.4268 148.853 47.4824 131.117L46.9449 129.189C44.2862 119.652 34.4866 113.994 24.8978 116.46L22.9593 116.959C5.12722 121.545 -7.44592 99.7674 5.44175 86.6174L6.84276 85.1879C13.7728 78.1168 13.7728 66.8011 6.84275 59.73L5.44174 58.3005C-7.44593 45.1505 5.12724 23.3732 22.9593 27.9592L24.8978 28.4578C34.4866 30.9238 44.2862 25.266 46.9449 15.7289L47.4824 13.8008Z" fill="#CB257B"/>
</svg>
